<svg width="166" height="42" viewBox="0 0 166 42" fill="none" xmlns="http://www.w3.org/2000/svg">
<path fill-rule="evenodd" clip-rule="evenodd" d="M146.317 22.425C148.018 20.1808 150.731 18.4324 154.642 18.4324C158.482 18.4324 161.18 20.1598 162.891 22.3564C164.566 24.5066 165.303 27.1083 165.324 29.0032C165.333 29.8423 164.645 30.4486 163.89 30.4486H146.507C146.956 33.7908 149.223 36.0292 151.975 36.9432C155.092 37.9784 158.687 37.2703 160.878 34.597C161.31 34.0706 162.086 33.9937 162.612 34.4252C163.139 34.8566 163.216 35.6332 162.784 36.1596C159.84 39.7512 155.116 40.5836 151.198 39.2824C147.241 37.968 143.961 34.4331 143.961 29.2162C143.961 27.2743 144.653 24.62 146.317 22.425ZM146.537 27.9837H162.759C162.543 26.7192 161.971 25.1863 160.947 23.871C159.653 22.2097 157.644 20.8972 154.642 20.8972C151.569 20.8972 149.558 22.2299 148.281 23.9141C147.305 25.2017 146.755 26.7033 146.537 27.9837Z" fill="#050505"/>
<path fill-rule="evenodd" clip-rule="evenodd" d="M71.3186 22.425C73.0201 20.1808 75.7334 18.4324 79.644 18.4324C83.4842 18.4324 86.1822 20.1598 87.8932 22.3564C89.568 24.5066 90.3046 27.1083 90.3259 29.0032C90.3354 29.8423 89.6473 30.4486 88.8915 30.4486H71.5086C71.9576 33.7908 74.2251 36.0292 76.977 36.9432C80.0942 37.9784 83.6888 37.2703 85.88 34.597C86.3115 34.0706 87.088 33.9937 87.6144 34.4252C88.1408 34.8566 88.2178 35.6332 87.7863 36.1596C84.8424 39.7512 80.1181 40.5836 76.2001 39.2824C72.2425 37.968 68.9629 34.4331 68.9629 29.2162C68.9629 27.2743 69.6545 24.62 71.3186 22.425ZM71.539 27.9837H87.7606C87.5449 26.7192 86.9731 25.1863 85.9486 23.871C84.6546 22.2097 82.6462 20.8972 79.644 20.8972C76.5708 20.8972 74.5597 22.2299 73.2828 23.9141C72.3066 25.2017 71.7571 26.7033 71.539 27.9837Z" fill="#050505"/>
<path d="M29.169 18.0397C33.791 23.625 31.0563 39.807 16.8046 39.9983C-2.64452 40.2593 -3.30108 11.0007 17.0357 11.0007C18.6344 11.0007 20.0094 11.2037 21.157 11.4267M32.0574 9.08794C28.4753 12.3546 25.3554 12.2249 23.5451 11.9188C22.9074 11.8111 22.1107 11.612 21.157 11.4267M32.0574 9.08794C34.2914 7.05067 35.0617 3.54671 33.0203 2.43154C31.4796 1.5899 24.2769 1.28387 21.8503 8.32285C21.6192 9.89132 23.6722 7.07618 27.3583 7.40473C30.3626 7.67251 30.7863 8.09332 32.0574 9.08794ZM32.0574 9.08794C32.6994 9.30473 34.068 10.0214 34.407 11.1537C34.8306 12.5692 32.327 14.9028 29.6693 15.1323C27.0116 15.3618 24.6621 15.2191 21.157 11.4267" stroke="#3C9939" stroke-width="2.87568" stroke-linecap="round"/>
<path fill-rule="evenodd" clip-rule="evenodd" d="M100.763 18.4771C103.443 18.0006 106.684 18.7949 108.758 21.4787C109.174 22.0173 109.075 22.7913 108.536 23.2075C107.997 23.6237 107.223 23.5245 106.807 22.9859C105.389 21.1509 103.135 20.5588 101.194 20.9039C99.1825 21.2616 98.0257 22.4656 98.0257 23.7729C98.0257 24.6187 98.4221 25.2241 99.2903 25.8029C100.223 26.425 101.509 26.8822 103.007 27.4125L103.03 27.4207C104.436 27.9183 106.044 28.4874 107.285 29.3445C108.601 30.2525 109.631 31.5732 109.631 33.5298C109.631 37.1109 106.615 39.1432 103.611 39.5887C100.578 40.0385 96.9436 39.0163 95.0269 35.925C94.6683 35.3465 94.8465 34.5867 95.425 34.2281C96.0035 33.8694 96.7632 34.0476 97.1219 34.6261C98.389 36.67 100.917 37.4965 103.25 37.1505C105.613 36.8 107.166 35.3919 107.166 33.5298C107.166 32.6106 106.746 31.9671 105.885 31.3731C104.958 30.7329 103.675 30.2636 102.185 29.7361C102.135 29.7185 102.085 29.7007 102.034 29.6829C100.667 29.1995 99.1218 28.653 97.923 27.8538C96.6152 26.9819 95.5609 25.7001 95.5609 23.7729C95.5609 20.7667 98.1528 18.9411 100.763 18.4771Z" fill="#050505"/>
<path fill-rule="evenodd" clip-rule="evenodd" d="M139.854 11.2432C140.534 11.2432 141.086 11.7949 141.086 12.4756L141.086 38.3567C141.086 39.0373 140.534 39.5891 139.854 39.5891C139.173 39.5891 138.621 39.0373 138.621 38.3567L138.621 12.4756C138.621 11.7949 139.173 11.2432 139.854 11.2432Z" fill="#050505"/>
<path fill-rule="evenodd" clip-rule="evenodd" d="M49.961 13.708V27.6756H58.8525C62.4879 26.7675 64.3242 23.7156 64.3342 20.6369C64.3443 17.5313 62.5015 14.5567 58.7775 13.8451C58.3006 13.7539 57.816 13.708 57.3305 13.708H49.961ZM58.3653 30.1405H49.961V38.6648C49.961 39.3454 49.4092 39.8972 48.7285 39.8972C48.0479 39.8972 47.4961 39.3454 47.4961 38.6648V12.681C47.4961 11.8869 48.1398 11.2432 48.9339 11.2432H57.3305C57.9713 11.2432 58.6107 11.3037 59.2402 11.424C64.3034 12.3916 66.8124 16.5403 66.799 20.6449C66.7873 24.2438 64.8405 27.9311 60.9803 29.559L66.9847 37.9475C67.3809 38.5009 67.2534 39.2708 66.6999 39.6669C66.1464 40.0631 65.3766 39.9356 64.9804 39.3821L58.3653 30.1405Z" fill="#050505"/>
<path fill-rule="evenodd" clip-rule="evenodd" d="M132.843 18.4324C133.524 18.4324 134.075 18.9842 134.075 19.6649L134.075 38.3568C134.075 39.0374 133.524 39.5892 132.843 39.5892C132.162 39.5892 131.611 39.0374 131.611 38.3568L131.611 19.6649C131.611 18.9842 132.162 18.4324 132.843 18.4324Z" fill="#050505"/>
<path fill-rule="evenodd" clip-rule="evenodd" d="M123.189 37.3297C127.727 37.3297 131.405 33.6512 131.405 29.1135C131.405 24.5758 127.727 20.8973 123.189 20.8973C118.651 20.8973 114.973 24.5758 114.973 29.1135C114.973 33.6512 118.651 37.3297 123.189 37.3297ZM123.189 39.7946C129.088 39.7946 133.87 35.0125 133.87 29.1135C133.87 23.2145 129.088 18.4324 123.189 18.4324C117.29 18.4324 112.508 23.2145 112.508 29.1135C112.508 35.0125 117.29 39.7946 123.189 39.7946Z" fill="#050505"/>
<circle cx="39.898" cy="15.2485" r="1.54054" fill="#3C9939"/>
<path d="M39.8984 19.6648L39.8984 38.5621" stroke="#050505" stroke-width="2.46486" stroke-linecap="round"/>
</svg>
