<svg width="854" height="995" viewBox="0 0 854 995" fill="none" xmlns="http://www.w3.org/2000/svg">
  <path d="M693.862 424.661C806.799 562.088 739.977 960.251 391.743 964.957C-83.4868 971.38 -99.5294 251.465 397.39 251.465C436.454 251.465 470.051 256.46 498.093 261.946M764.439 204.401C676.912 284.778 600.679 281.586 556.444 274.056C540.864 271.403 521.397 266.505 498.093 261.946M764.439 204.401C819.026 154.273 837.849 68.0572 787.968 40.6181C750.322 19.9094 574.326 12.3795 515.034 185.575C509.387 224.168 559.551 154.901 649.618 162.985C723.028 169.574 733.381 179.928 764.439 204.401ZM764.439 204.401C780.125 209.735 813.567 227.368 821.849 255.23C832.202 290.058 771.027 347.476 706.087 353.124C641.148 358.771 583.738 355.26 498.093 261.946" stroke="#3C9939" stroke-width="60" stroke-linecap="round" />
</svg>