<svg width="632" height="206" viewBox="0 0 632 206" fill="none" xmlns="http://www.w3.org/2000/svg">
<path opacity="0.99" d="M518.291 181.845C603.742 285.908 553.183 587.404 289.702 590.968C-69.8665 595.831 -82.0046 50.6977 293.975 50.6977C323.531 50.6977 348.952 54.48 370.169 58.6342M571.691 15.0596C505.467 75.9226 447.787 73.5059 414.319 67.8038C402.53 65.7954 387.801 62.0864 370.169 58.6342M571.691 15.0596C612.993 -22.898 627.235 -88.1823 589.494 -108.96C561.01 -124.641 427.848 -130.343 382.986 0.804753C378.714 30.0278 416.669 -22.4228 484.816 -16.3014C540.359 -11.3121 548.192 -3.47179 571.691 15.0596ZM571.691 15.0596C583.56 19.0986 608.863 32.4511 615.129 53.5487C622.962 79.9208 576.676 123.399 527.542 127.675C478.407 131.952 434.969 129.293 370.169 58.6342" stroke="#F5F5F7" stroke-width="32" stroke-linecap="round"/>
</svg>
