<svg width="16" height="16" viewBox="0 0 16 16" fill="none" xmlns="http://www.w3.org/2000/svg">
<g clip-path="url(#clip0_178_2034)">
<path d="M3.54485 12.9589C3.9504 12.0035 4.89727 11.3333 6.00065 11.3333H10.0007C11.104 11.3333 12.0509 12.0035 12.4565 12.9589M10.6673 6.33333C10.6673 7.80609 9.47341 9 8.00065 9C6.52789 9 5.33398 7.80609 5.33398 6.33333C5.33398 4.86057 6.52789 3.66667 8.00065 3.66667C9.47341 3.66667 10.6673 4.86057 10.6673 6.33333ZM14.6673 8C14.6673 11.6819 11.6826 14.6667 8.00065 14.6667C4.31875 14.6667 1.33398 11.6819 1.33398 8C1.33398 4.3181 4.31875 1.33333 8.00065 1.33333C11.6826 1.33333 14.6673 4.3181 14.6673 8Z" stroke="white" stroke-width="1.2" stroke-linecap="round" stroke-linejoin="round"/>
</g>
<defs>
<clipPath id="clip0_178_2034">
<rect width="16" height="16" fill="white"/>
</clipPath>
</defs>
</svg>
