<svg width="21" height="21" viewBox="0 0 21 21" fill="none" xmlns="http://www.w3.org/2000/svg">
  <path d="M14.0006 7.875V5.25C14.0006 3.317 12.4336 1.75 10.5006 1.75C8.56757 1.75 7.00057 3.317 7.00057 5.25V7.875M3.14357 9.05797L2.61857 14.658C2.4693 16.2502 2.39466 17.0463 2.65886 17.6612C2.89095 18.2014 3.29767 18.6481 3.81383 18.9296C4.4014 19.25 5.20101 19.25 6.80023 19.25H14.2009C15.8001 19.25 16.5997 19.25 17.1873 18.9296C17.7035 18.6481 18.1102 18.2014 18.3423 17.6612C18.6065 17.0463 18.5318 16.2502 18.3826 14.658L17.8576 9.05797C17.7315 7.71343 17.6685 7.04116 17.3661 6.53289C17.0998 6.08526 16.7064 5.72697 16.2358 5.50361C15.7016 5.25 15.0263 5.25 13.6759 5.25L7.32523 5.25C5.9748 5.25 5.29958 5.25 4.76531 5.50361C4.29477 5.72697 3.90132 6.08526 3.63502 6.53289C3.33265 7.04116 3.26962 7.71343 3.14357 9.05797Z" stroke="white" stroke-width="2" stroke-linecap="round" stroke-linejoin="round" />
</svg>