<svg width="14" height="14" viewBox="0 0 14 14" fill="none" xmlns="http://www.w3.org/2000/svg">
<path fill-rule="evenodd" clip-rule="evenodd" d="M6.19494 0.0418574C4.8608 0.206205 3.595 0.752756 2.56183 1.61057C2.29747 1.83006 1.80305 2.32894 1.59871 2.58237C0.76694 3.61393 0.221315 4.93424 0.0853492 6.24438C0.0357604 6.72235 0.0657956 7.62736 0.146447 8.08416C0.274368 8.80893 0.477069 9.41953 0.809541 10.0816L0.97927 10.4196L0.489635 12.1994C0.220346 13.1783 0 13.9869 0 13.9965C0 14.006 0.0627421 13.9956 0.13946 13.9733C0.216177 13.9511 1.0438 13.7338 1.97865 13.4905L3.67842 13.0482L3.96045 13.1794C4.7253 13.5351 5.36661 13.7267 6.14016 13.8305C6.62063 13.8949 7.44227 13.8949 7.92718 13.8303C10.2131 13.5261 12.189 12.1402 13.2382 10.1052C13.8023 9.0111 14.0305 7.99726 13.9968 6.73581C13.9673 5.63573 13.747 4.76428 13.2529 3.79251C12.3061 1.93047 10.5584 0.590891 8.49218 0.143439C7.83974 0.0021651 6.86661 -0.0408861 6.19494 0.0418574ZM8.02994 1.25074C8.8935 1.40994 9.53563 1.66737 10.2613 2.14526C11.4301 2.91498 12.3088 4.1476 12.6518 5.49866C12.9038 6.49123 12.884 7.61859 12.5977 8.57302C11.9931 10.5896 10.3321 12.1269 8.26481 12.5833C7.70765 12.7063 6.8063 12.7404 6.23898 12.6598C5.48261 12.5525 4.7635 12.3052 4.09897 11.9238C3.87075 11.7929 3.86165 11.7904 3.73079 11.822C3.65698 11.8398 3.16837 11.9664 2.645 12.1034C2.12164 12.2404 1.68905 12.3481 1.68373 12.3428C1.67839 12.3375 1.80047 11.8741 1.95499 11.3131C2.10954 10.752 2.23673 10.2733 2.23769 10.2492C2.23863 10.2251 2.16262 10.0805 2.06879 9.92794C0.685378 7.67812 1.04759 4.72976 2.93708 2.85984C3.87897 1.9277 5.06529 1.35778 6.40046 1.19597C6.76159 1.15222 7.65918 1.18239 8.02994 1.25074ZM4.29086 3.79902C4.12107 3.88264 3.81083 4.24714 3.68112 4.51541C3.42163 5.05212 3.43206 5.72601 3.70954 6.35008C4.05757 7.13279 4.94127 8.237 5.7608 8.91314C6.35583 9.40411 6.84702 9.68931 7.57486 9.96649C8.26614 10.2297 8.40818 10.2623 8.86669 10.263C9.23102 10.2635 9.28158 10.2568 9.49238 10.1798C9.78081 10.0744 10.1039 9.8659 10.2784 9.67255C10.4374 9.49652 10.5321 9.24326 10.5595 8.92129C10.5894 8.56858 10.6061 8.58836 10.0421 8.30744C9.30636 7.94101 8.96819 7.79582 8.85049 7.79582C8.73129 7.79582 8.70169 7.82193 8.43516 8.16223C8.08739 8.60623 8.00701 8.68372 7.89421 8.68372C7.76432 8.68372 7.14012 8.3858 6.80768 8.16515C6.51881 7.9734 6.17471 7.67672 5.95516 7.43009C5.63067 7.06556 5.28478 6.55292 5.28478 6.43647C5.28478 6.4018 5.39518 6.23015 5.53012 6.05508C5.78975 5.71821 5.87198 5.58368 5.87198 5.49598C5.87198 5.44618 5.33129 4.11472 5.23889 3.93696C5.15076 3.76739 5.0714 3.73605 4.73032 3.73608C4.47034 3.73608 4.39747 3.74653 4.29086 3.79902Z" fill="#969696"/>
</svg>
