<svg width="21" height="21" viewBox="0 0 21 21" fill="none" xmlns="http://www.w3.org/2000/svg">
<path d="M10.5 17.7188C10.5 17.7188 2.29688 13.125 2.29688 7.54688C2.29704 6.56098 2.63866 5.60556 3.26365 4.84306C3.88864 4.08057 4.75842 3.55807 5.72512 3.36439C6.69181 3.17071 7.69575 3.31781 8.56624 3.78069C9.43673 4.24356 10.12 4.99364 10.5 5.90339L10.5 5.90339C10.88 4.99364 11.5633 4.24357 12.4338 3.78069C13.3042 3.31782 14.3082 3.17071 15.2749 3.36439C16.2416 3.55806 17.1114 4.08057 17.7363 4.84306C18.3613 5.60556 18.703 6.56098 18.7031 7.54688C18.7031 13.125 10.5 17.7188 10.5 17.7188Z" stroke="#D9D9D9" stroke-width="2" stroke-linecap="round" stroke-linejoin="round"/>
</svg>
