<svg width="16" height="16" viewBox="0 0 16 16" fill="none" xmlns="http://www.w3.org/2000/svg">
<g clip-path="url(#clip0_178_2029)">
<path d="M3.33398 9.52424C2.09974 10.0687 1.33398 10.8274 1.33398 11.6667C1.33398 13.3235 4.31875 14.6667 8.00065 14.6667C11.6826 14.6667 14.6673 13.3235 14.6673 11.6667C14.6673 10.8274 13.9016 10.0687 12.6673 9.52424M12.0007 5.33333C12.0007 8.04247 9.00065 9.33333 8.00065 11.3333C7.00065 9.33333 4.00065 8.04247 4.00065 5.33333C4.00065 3.12419 5.79151 1.33333 8.00065 1.33333C10.2098 1.33333 12.0007 3.12419 12.0007 5.33333ZM8.66732 5.33333C8.66732 5.70152 8.36884 6 8.00065 6C7.63246 6 7.33398 5.70152 7.33398 5.33333C7.33398 4.96514 7.63246 4.66667 8.00065 4.66667C8.36884 4.66667 8.66732 4.96514 8.66732 5.33333Z" stroke="#D9D9D9" stroke-width="1.2" stroke-linecap="round" stroke-linejoin="round"/>
</g>
<defs>
<clipPath id="clip0_178_2029">
<rect width="16" height="16" fill="white"/>
</clipPath>
</defs>
</svg>
