<svg width="66" height="66" viewBox="0 0 66 66" fill="none" xmlns="http://www.w3.org/2000/svg">
<g clip-path="url(#clip0_31_319)">
<path d="M66 33C65.8066 44.0344 63.8602 52.916 58.3043 58.3043C52.916 63.8602 44.0344 65.8066 33 66C21.9656 65.8066 13.084 63.8602 7.6957 58.3043C2.13984 52.916 0.193359 44.0344 0 33C0.193359 21.9656 2.13984 13.084 7.6957 7.6957C13.084 2.13984 21.9656 0.193359 33 0C44.0344 0.193359 52.916 2.13984 58.3043 7.6957C63.8602 13.084 65.8066 21.9656 66 33Z" fill="url(#paint0_linear_31_319)"/>
<path d="M66 33C65.8066 44.0344 63.8602 52.916 58.3043 58.3043C52.916 63.8602 44.0344 65.8066 33 66C21.9656 65.8066 13.084 63.8602 7.6957 58.3043C2.13984 52.916 0.193359 44.0344 0 33C0.193359 21.9656 2.13984 13.084 7.6957 7.6957C13.084 2.13984 21.9656 0.193359 33 0C44.0344 0.193359 52.916 2.13984 58.3043 7.6957C63.8602 13.084 65.8066 21.9656 66 33Z" fill="url(#paint1_radial_31_319)"/>
<path d="M39.6906 59.4774C53.1532 59.4774 64.0668 48.5639 64.0668 35.1013C64.0668 21.6387 53.1532 10.7251 39.6906 10.7251C26.228 10.7251 15.3145 21.6387 15.3145 35.1013C15.3145 48.5639 26.228 59.4774 39.6906 59.4774Z" fill="url(#paint2_radial_31_319)"/>
<path d="M33.275 55.6861C32.8883 55.6861 32.4887 55.5958 32.1406 55.4154C29.4078 54.0361 15.7695 46.5337 15.7695 34.2619V21.8611C15.7695 20.8685 16.3109 19.9533 17.1875 19.4763L31.973 11.4326C32.3727 11.2134 32.8238 11.0974 33.275 11.0974C33.7262 11.0974 34.1773 11.2134 34.577 11.4326L49.3625 19.4763C50.2391 19.9533 50.7805 20.8685 50.7805 21.8611V34.2619C50.7805 46.5209 37.1422 54.0361 34.4094 55.4154C34.0613 55.5958 33.6617 55.6861 33.275 55.6861Z" fill="white"/>
<path d="M33.275 55.6861C32.8883 55.6861 32.4887 55.5958 32.1406 55.4154C29.4078 54.0361 15.7695 46.5337 15.7695 34.2619V21.8611C15.7695 20.8685 16.3109 19.9533 17.1875 19.4763L31.973 11.4326C32.3727 11.2134 32.8238 11.0974 33.275 11.0974C33.7262 11.0974 34.1773 11.2134 34.577 11.4326L49.3625 19.4763C50.2391 19.9533 50.7805 20.8685 50.7805 21.8611V34.2619C50.7805 46.5209 37.1422 54.0361 34.4094 55.4154C34.0613 55.5958 33.6617 55.6861 33.275 55.6861Z" fill="url(#paint3_radial_31_319)"/>
<path d="M33.8293 12.7991L48.6149 20.8428C48.9887 21.0491 49.2207 21.4358 49.2207 21.8741V34.2748C49.2207 45.6444 36.2656 52.7471 33.7004 54.0491C33.4297 54.1909 33.1074 54.1909 32.8238 54.0491C30.2586 52.76 17.3035 45.6573 17.3035 34.2748V21.8741C17.3035 21.4487 17.5356 21.0491 17.9094 20.8428L32.6949 12.7991C33.0688 12.6057 33.4813 12.6057 33.8293 12.7991Z" fill="white"/>
<path d="M39.6812 28.5643C39.3074 28.1905 38.6886 28.1905 38.3148 28.5643L30.6964 36.1827L28.2472 33.7334C27.8734 33.3596 27.2546 33.3596 26.8808 33.7334C26.507 34.1073 26.507 34.726 26.8808 35.0999L30.0132 38.2323C30.2066 38.4256 30.4515 38.5159 30.6964 38.5159C30.9414 38.5159 31.1863 38.4256 31.3796 38.2323L39.6812 29.9307C40.055 29.5569 40.055 28.9381 39.6812 28.5643Z" fill="#5D5D5D"/>
</g>
<defs>
<linearGradient id="paint0_linear_31_319" x1="7.48159" y1="7.48159" x2="58.2828" y2="58.2828" gradientUnits="userSpaceOnUse">
<stop stop-color="#F8F8F8"/>
<stop offset="0.3342" stop-color="#B5B5B5"/>
<stop offset="0.7653" stop-color="#757575"/>
<stop offset="1" stop-color="#494949"/>
</linearGradient>
<radialGradient id="paint1_radial_31_319" cx="0" cy="0" r="1" gradientUnits="userSpaceOnUse" gradientTransform="translate(4.77379 5.812) scale(41.2722)">
<stop stop-color="#373737" stop-opacity="0.215686"/>
<stop offset="1" stop-color="#373737" stop-opacity="0"/>
</radialGradient>
<radialGradient id="paint2_radial_31_319" cx="0" cy="0" r="1" gradientUnits="userSpaceOnUse" gradientTransform="translate(39.4529 35.2117) scale(24.63)">
<stop offset="0.2214" stop-color="#171717"/>
<stop offset="0.7173" stop-color="#171717" stop-opacity="0.335"/>
<stop offset="0.9673" stop-color="#333333" stop-opacity="0"/>
</radialGradient>
<radialGradient id="paint3_radial_31_319" cx="0" cy="0" r="1" gradientUnits="userSpaceOnUse" gradientTransform="translate(37.2244 35.9654) scale(21.029 21.029)">
<stop stop-color="#A4C9FF"/>
<stop offset="0.1853" stop-color="#A9CCFF" stop-opacity="0.815"/>
<stop offset="0.412" stop-color="#B8D5FF" stop-opacity="0.588"/>
<stop offset="0.6602" stop-color="#D1E4FF" stop-opacity="0.34"/>
<stop offset="0.9221" stop-color="#F3F8FF" stop-opacity="0.078"/>
<stop offset="1" stop-color="white" stop-opacity="0"/>
</radialGradient>
<clipPath id="clip0_31_319">
<rect width="66" height="66" fill="white"/>
</clipPath>
</defs>
</svg>
