<svg width="14" height="12" viewBox="0 0 14 12" fill="none" xmlns="http://www.w3.org/2000/svg">
<path fill-rule="evenodd" clip-rule="evenodd" d="M13.057 0.232682C12.9111 0.286353 3.82433 3.76488 1.26955 4.74506C0.878488 4.89509 0.484336 5.0572 0.393643 5.10528C-0.0984306 5.3663 -0.132495 5.70075 0.310207 5.92439C0.355389 5.94723 1.13312 6.19565 2.03852 6.47649L3.68465 6.98707L7.41929 4.65026C9.47332 3.365 11.1958 2.29895 11.247 2.28124C11.376 2.23666 11.4843 2.24104 11.5362 2.29296C11.5765 2.33324 11.5761 2.3432 11.5313 2.41377C11.5045 2.45608 10.1394 3.69516 8.49775 5.1673C6.85613 6.63944 5.50913 7.8535 5.50445 7.86522C5.49974 7.87694 5.44388 8.61434 5.38032 9.50385L5.26476 11.1212H5.32229C5.35395 11.1212 5.44322 11.1024 5.52069 11.0793C5.67723 11.0329 5.67452 11.0352 6.7932 9.96424C7.1511 9.62162 7.45645 9.34128 7.47178 9.34128C7.48712 9.34128 8.21712 9.86706 9.09404 10.5097C9.97093 11.1523 10.7562 11.7094 10.839 11.7477C11.0558 11.848 11.3064 11.8583 11.4648 11.7736C11.6074 11.6972 11.7233 11.5451 11.7948 11.3402C11.8237 11.2574 12.3316 8.92848 12.9235 6.16484C13.9087 1.56438 13.9996 1.11809 14 0.879908C14.0003 0.654819 13.991 0.601313 13.9307 0.482854C13.8882 0.399335 13.8156 0.314064 13.7448 0.264227C13.5828 0.150259 13.3145 0.137964 13.057 0.232682Z" fill="#969696"/>
</svg>
