<svg width="632" height="740" viewBox="0 0 632 740" fill="none" xmlns="http://www.w3.org/2000/svg">
  <path opacity="0.99" d="M518.291 314.845C603.742 418.907 553.183 720.404 289.702 723.968C-69.8666 728.831 -82.0047 183.698 293.975 183.698C323.531 183.698 348.952 187.48 370.169 191.634M571.691 148.06C505.467 208.923 447.787 206.506 414.319 200.804C402.53 198.795 387.801 195.086 370.169 191.634M571.691 148.06C612.993 110.102 627.235 44.8176 589.494 24.0403C561.01 8.35922 427.848 2.65742 382.986 133.805C378.714 163.028 416.669 110.577 484.816 116.699C540.359 121.688 548.192 129.528 571.691 148.06ZM571.691 148.06C583.56 152.099 608.863 165.451 615.129 186.549C622.962 212.921 576.676 256.399 527.542 260.675C478.407 264.952 434.969 262.293 370.169 191.634" stroke="#ffffff" stroke-width="32" stroke-linecap="round" />
</svg>